# xmcd
#
# Track frame offsets: 
#        150
#        15526
#        31222
#        46164
#        60526
#        77365
#        98781
#        112412
#        126540
#        144574
#
# Disc length: 2169 seconds
#
# Revision: 0
# Processed by: cddbd v1.5.2PL0 Copyright (c) Steve Scherf et al.
# Submitted via: ExactAudioCopy v1.0b3
#
DISCID=8108770a
DTITLE=Van McCoy - The Disco Kid
DYEAR=1975
DGENRE=Disco
TTITLE0=The Disco Kid
TTITLE1=I'm Gonna Love You
TTITLE2=Change With The Times
TTITLE3=Love Child
TTITLE4=The Walk
TTITLE5=Eartquake
TTITLE6=Words Spoken Softly At Midnight
TTITLE7=Roll With The Punches
TTITLE8=Keep On Hustlin'
TTITLE9=Good Night, Baby
EXTD=
EXTT0=
EXTT1=
EXTT2=
EXTT3=
EXTT4=
EXTT5=
EXTT6=
EXTT7=
EXTT8=
EXTT9=
PLAYORDER=
